<?xml version="1.0" encoding="utf-8"?>
<svg width="40px" height="40" xmlns="http://www.w3.org/2000/svg">
  <radialGradient id="a" cy="0%" r="100.11%" gradientTransform="matrix(0 .9989 -1.152 0 .5 -.5)">
    <stop offset="0" stop-color="#20c6b7"/>
    <stop offset="1" stop-color="#4d9abf"/>
  </radialGradient>
  <path fill="url(#a)" fill-rule="nonzero" d="M 27.887 14.135 L 27.873 14.129 C 27.865 14.126 27.857 14.123 27.85 14.116 C 27.827 14.091 27.816 14.057 27.822 14.023 L 28.595 9.297 L 32.22 12.923 L 28.45 14.527 C 28.44 14.531 28.428 14.533 28.417 14.533 L 28.402 14.533 C 28.397 14.53 28.392 14.526 28.382 14.516 C 28.242 14.36 28.074 14.231 27.887 14.135 L 27.887 14.135 Z M 33.145 13.847 L 37.021 17.723 C 37.826 18.529 38.229 18.931 38.376 19.397 C 38.398 19.466 38.416 19.535 38.43 19.606 L 29.167 15.683 C 29.162 15.681 29.157 15.679 29.152 15.677 C 29.115 15.662 29.072 15.645 29.072 15.607 C 29.072 15.569 29.116 15.551 29.153 15.536 L 29.165 15.531 L 33.145 13.847 Z M 38.272 20.85 C 38.072 21.226 37.682 21.616 37.022 22.277 L 32.652 26.646 L 27 25.469 L 26.97 25.463 C 26.92 25.455 26.867 25.446 26.867 25.401 C 26.824 24.93 26.586 24.498 26.212 24.208 C 26.189 24.185 26.195 24.149 26.202 24.116 C 26.202 24.111 26.202 24.106 26.204 24.102 L 27.267 17.576 L 27.271 17.554 C 27.277 17.504 27.286 17.446 27.331 17.446 C 27.791 17.389 28.209 17.149 28.491 16.781 C 28.5 16.771 28.506 16.76 28.518 16.754 C 28.55 16.739 28.588 16.754 28.621 16.768 L 38.271 20.85 L 38.272 20.85 Z M 31.647 27.651 L 24.461 34.837 L 25.691 27.277 L 25.693 27.267 C 25.694 27.257 25.696 27.247 25.699 27.238 C 25.709 27.214 25.735 27.204 25.76 27.194 L 25.772 27.189 C 26.041 27.074 26.28 26.897 26.467 26.672 C 26.491 26.644 26.52 26.617 26.557 26.612 C 26.567 26.61 26.576 26.61 26.586 26.612 L 31.646 27.652 L 31.647 27.651 Z M 22.94 36.358 L 22.13 37.168 L 13.175 24.226 C 13.172 24.221 13.168 24.217 13.165 24.212 C 13.151 24.193 13.136 24.174 13.139 24.152 C 13.139 24.136 13.15 24.122 13.161 24.11 L 13.171 24.097 C 13.198 24.057 13.221 24.017 13.246 23.974 L 13.266 23.939 L 13.269 23.936 C 13.283 23.912 13.296 23.889 13.32 23.876 C 13.341 23.866 13.37 23.87 13.393 23.875 L 23.314 25.921 C 23.342 25.925 23.368 25.937 23.39 25.954 C 23.403 25.967 23.406 25.981 23.409 25.997 C 23.549 26.528 23.93 26.962 24.437 27.172 C 24.465 27.186 24.453 27.217 24.44 27.25 C 24.434 27.264 24.428 27.28 24.425 27.295 C 24.3 28.055 23.228 34.593 22.94 36.358 Z M 21.248 38.049 C 20.651 38.64 20.299 38.953 19.901 39.079 C 19.509 39.203 19.087 39.203 18.695 39.079 C 18.229 38.931 17.826 38.529 17.021 37.723 L 8.028 28.73 L 10.377 25.087 C 10.388 25.069 10.399 25.053 10.417 25.04 C 10.442 25.022 10.478 25.03 10.508 25.04 C 11.047 25.203 11.626 25.173 12.146 24.957 C 12.173 24.947 12.2 24.94 12.221 24.959 C 12.232 24.969 12.241 24.979 12.249 24.991 L 21.248 38.05 L 21.248 38.049 Z M 7.161 27.863 L 5.098 25.8 L 9.172 24.062 C 9.182 24.057 9.194 24.055 9.205 24.055 C 9.239 24.055 9.259 24.089 9.277 24.12 C 9.318 24.183 9.361 24.244 9.407 24.304 L 9.42 24.32 C 9.432 24.337 9.424 24.354 9.412 24.37 L 7.162 27.863 L 7.161 27.863 Z M 4.185 24.887 L 1.575 22.277 C 1.131 21.833 0.809 21.511 0.585 21.234 L 8.521 22.88 C 8.531 22.882 8.541 22.884 8.551 22.885 C 8.6 22.893 8.654 22.902 8.654 22.948 C 8.654 22.998 8.595 23.021 8.545 23.04 L 8.522 23.05 L 4.185 24.887 Z M 0.129 19.892 C 0.138 19.724 0.168 19.558 0.219 19.397 C 0.367 18.931 0.769 18.529 1.575 17.723 L 4.915 14.383 C 6.453 16.615 7.995 18.844 9.541 21.07 C 9.568 21.106 9.598 21.146 9.567 21.176 C 9.421 21.337 9.275 21.513 9.172 21.704 C 9.161 21.729 9.144 21.75 9.122 21.766 C 9.109 21.774 9.095 21.771 9.08 21.768 L 9.078 21.768 L 0.129 19.891 L 0.129 19.892 Z M 5.809 13.489 L 10.298 8.998 C 10.721 9.183 12.258 9.832 13.631 10.412 C 14.671 10.852 15.619 11.252 15.917 11.382 C 15.947 11.394 15.974 11.406 15.987 11.436 C 15.995 11.454 15.991 11.477 15.987 11.496 C 15.843 12.155 16.039 12.842 16.51 13.324 C 16.54 13.354 16.51 13.397 16.484 13.434 L 16.47 13.455 L 11.91 20.518 C 11.898 20.538 11.887 20.555 11.867 20.568 C 11.843 20.583 11.809 20.576 11.781 20.569 C 11.604 20.523 11.421 20.498 11.238 20.495 C 11.074 20.495 10.896 20.525 10.716 20.558 L 10.715 20.558 C 10.695 20.561 10.677 20.565 10.661 20.553 C 10.643 20.539 10.628 20.521 10.616 20.502 L 5.808 13.489 L 5.809 13.489 Z M 11.207 8.091 L 17.021 2.277 C 17.826 1.472 18.229 1.069 18.695 0.922 C 19.087 0.798 19.509 0.798 19.901 0.922 C 20.367 1.069 20.77 1.472 21.575 2.277 L 22.835 3.537 L 18.7 9.941 C 18.69 9.96 18.676 9.976 18.659 9.989 C 18.634 10.006 18.599 9.999 18.569 9.989 C 17.907 9.788 17.189 9.927 16.649 10.359 C 16.622 10.387 16.582 10.371 16.548 10.356 C 16.008 10.121 11.808 8.346 11.207 8.091 L 11.207 8.091 Z M 23.713 4.415 L 27.531 8.233 L 26.611 13.931 L 26.611 13.946 C 26.61 13.959 26.607 13.972 26.603 13.984 C 26.593 14.004 26.573 14.008 26.553 14.014 C 26.356 14.074 26.171 14.166 26.005 14.287 C 25.998 14.292 25.991 14.298 25.985 14.304 C 25.974 14.316 25.963 14.327 25.945 14.329 C 25.93 14.329 25.916 14.327 25.902 14.322 L 20.084 11.85 L 20.073 11.845 C 20.036 11.83 19.992 11.812 19.992 11.774 C 19.958 11.45 19.852 11.137 19.682 10.859 C 19.654 10.813 19.623 10.765 19.647 10.718 L 23.713 4.415 Z M 19.781 13.021 L 25.235 15.331 C 25.265 15.345 25.298 15.358 25.311 15.389 C 25.316 15.408 25.316 15.427 25.311 15.446 C 25.295 15.526 25.281 15.617 25.281 15.709 L 25.281 15.862 C 25.281 15.9 25.242 15.916 25.206 15.931 L 25.195 15.935 C 24.331 16.304 13.065 21.108 13.048 21.108 C 13.031 21.108 13.013 21.108 12.996 21.091 C 12.966 21.061 12.996 21.019 13.023 20.981 C 13.028 20.974 13.032 20.968 13.037 20.961 L 17.519 14.021 L 17.527 14.009 C 17.553 13.967 17.583 13.92 17.631 13.92 L 17.676 13.927 C 17.778 13.941 17.868 13.954 17.959 13.954 C 18.639 13.954 19.269 13.623 19.649 13.057 C 19.658 13.042 19.67 13.028 19.683 13.017 C 19.71 12.997 19.75 13.007 19.781 13.021 Z M 13.535 22.206 L 25.815 16.969 C 25.815 16.969 25.833 16.969 25.85 16.986 C 25.917 17.053 25.974 17.098 26.029 17.14 L 26.056 17.157 C 26.081 17.171 26.106 17.187 26.108 17.213 C 26.108 17.223 26.108 17.229 26.106 17.238 L 25.054 23.7 L 25.05 23.726 C 25.043 23.776 25.036 23.833 24.989 23.833 C 24.42 23.871 23.906 24.188 23.616 24.68 L 23.611 24.688 C 23.597 24.711 23.584 24.733 23.561 24.745 C 23.54 24.755 23.513 24.751 23.491 24.746 L 13.698 22.726 C 13.688 22.724 13.546 22.207 13.535 22.206 L 13.535 22.206 Z"/>
</svg>
