<?xml version="1.0" encoding="UTF-8" standalone="no"?>
<!DOCTYPE svg PUBLIC "-//W3C//DTD SVG 1.1//EN" "http://www.w3.org/Graphics/SVG/1.1/DTD/svg11.dtd">
<!-- Created with Vectornator (http://vectornator.io/) -->
<svg height="100%" stroke-miterlimit="10" style="fill-rule:nonzero;clip-rule:evenodd;stroke-linecap:round;stroke-linejoin:round;" version="1.1" viewBox="0 0 240 240" width="100%" xml:space="preserve" xmlns="http://www.w3.org/2000/svg" xmlns:vectornator="http://vectornator.io" xmlns:xlink="http://www.w3.org/1999/xlink">
<defs/>
<clipPath id="ArtboardFrame">
<rect height="240" width="240" x="0" y="0"/>
</clipPath>
<g clip-path="url(#ArtboardFrame)" id="Background" vectornator:layerName="Background">
<path d="M-1.42109e-14 0L240 0L240 240L-1.42109e-14 240L-1.42109e-14 0Z" fill="#ffffff" fill-rule="nonzero" opacity="1" stroke="none" vectornator:layerName="Rectangle 1"/>
</g>
<g id="Foreground" vectornator:layerName="Foreground">
<g opacity="1" vectornator:layerName="Text">
<path d="M205.597 193.002C205.608 188.008 205.645 183.514 205.625 179.021C205.613 176.08 206.926 174.045 209.894 173.9C214.037 173.697 218.292 173.395 222.338 174.082C233.175 175.923 236.432 187.022 229.07 197.213C232.68 200.761 234.811 204.988 234.399 210.379C233.871 217.279 229.673 221.873 222.728 222.308C218.913 222.548 215.061 222.235 211.252 222.522C207.037 222.839 205.543 220.899 205.579 216.968C205.651 209.147 205.599 201.324 205.597 193.002M211.482 214.804C215.231 218.019 223.999 217.654 226.697 214.073C229.044 210.957 229.248 207.679 226.98 204.364C224.549 200.811 217.807 198.775 213.377 200.481C209.819 201.851 211.712 205.063 211.406 207.462C211.134 209.588 211.371 211.78 211.482 214.804M223.508 193.094C227.192 189.637 228.021 185.225 225.558 182.18C223.572 179.725 214.825 178.247 212.461 179.999C212.085 180.278 211.614 180.736 211.591 181.134C211.355 185.246 209.925 190.054 212.15 193.244C213.913 195.77 218.513 194.909 221.913 193.82C222.229 193.719 222.533 193.584 223.508 193.094Z" fill="#173963" fill-rule="nonzero" opacity="1" stroke="none" vectornator:layerName="path"/>
<path d="M181.554 173.823C193.468 176.59 197.174 180.7 197.878 192.28C198.22 197.909 198.463 203.597 197.359 209.206C195.805 217.108 190.087 222.037 182.065 222.363C179.572 222.465 177.073 222.401 174.576 222.442C167.275 222.562 166.752 222.05 166.745 214.514C166.735 203.862 166.73 193.21 166.746 182.558C166.758 174.501 167.515 173.76 175.616 173.74C177.446 173.735 179.277 173.77 181.554 173.823M189.979 184.734C186.723 180.091 181.971 179.272 176.761 179.445C174.296 179.526 173.145 180.523 173.16 183.069C173.219 193.037 173.182 203.005 173.21 212.973C173.214 214.468 173.267 215.935 175.024 216.696C180.819 219.206 189.783 215.679 190.956 209.458C192.45 201.53 192.869 193.353 189.979 184.734Z" fill="#173963" fill-rule="nonzero" opacity="1" stroke="none" vectornator:layerName="path"/>
<path d="M24.261 179.113C17.1778 180.651 14.4569 183.819 14.3355 190.487C14.2386 195.81 14.223 201.137 14.3301 206.459C14.5062 215.206 22.2053 220.379 30.3348 217.366C32.1755 216.684 32.9323 215.441 32.9614 213.593C32.9928 211.597 32.8376 209.575 33.1024 207.61C33.6372 203.643 32.442 201.658 28.07 202.076C25.8586 202.288 23.323 201.669 23.2736 198.907C23.2221 196.025 25.7831 195.822 28.0113 195.763C30.0061 195.711 32.0059 195.708 33.9995 195.785C37.3961 195.918 39.2226 197.731 39.2533 201.137C39.2997 206.294 39.2526 211.452 39.2355 216.61C39.2289 218.59 38.422 220.081 36.6802 221.142C31.2196 224.471 19.325 223.956 14.2779 220.03C10.6591 217.215 8.68845 213.458 8.61981 208.852C8.51818 202.032 8.50138 195.21 8.50965 188.389C8.51729 182.09 11.458 177.425 17.1463 174.957C23.2691 172.301 29.4859 172.746 35.3567 176.058C36.7493 176.843 37.6276 178.147 36.789 179.824C35.9492 181.504 34.3483 181.454 32.8763 181.001C30.1809 180.172 27.5969 178.926 24.261 179.113Z" fill="#173963" fill-rule="nonzero" opacity="1" stroke="none" vectornator:layerName="path"/>
<path d="M99.0893 221.988C99.1901 212.519 99.347 203.545 99.3576 194.571C99.3621 190.827 101.013 188.602 104.651 187.857C107.414 187.291 110.149 186.541 113.026 186.77C120.904 187.398 125.132 191.683 125.436 199.576C125.564 202.896 125.433 206.225 125.441 209.55C125.467 219.141 119.738 224.264 110.188 223.229C108.903 223.089 107.671 222.216 106.026 223.024C104.604 226.327 105.628 230.012 105.331 233.571C105.16 235.633 105.112 237.872 102.355 237.851C100.032 237.833 99.4219 235.826 99.3258 233.948C99.1304 230.133 99.1534 226.306 99.0893 221.988M118.017 215.432C121.078 209.254 120.257 202.705 118.887 196.488C117.856 191.808 113.275 192.039 109.32 192.459C105.429 192.872 105.235 195.641 105.313 198.684C105.403 202.181 105.334 205.681 105.336 209.18C105.34 217.662 109.872 220.21 118.017 215.432Z" fill="#173963" fill-rule="nonzero" opacity="1" stroke="none" vectornator:layerName="path"/>
<path d="M138.219 221.97C134.558 224.275 133.062 222.21 133.03 219.371C132.868 205.243 132.946 191.112 133.018 176.982C133.027 175.22 133.851 173.599 135.908 173.537C138.241 173.466 139.009 175.191 139.156 177.164C139.389 180.299 138.468 184.063 139.902 186.429C141.717 189.422 145.612 186.211 148.727 187.048C155.186 188.782 159.182 193.055 159.29 199.709C159.389 205.859 159.329 212.013 159.295 218.164C159.282 220.5 159.467 223.338 156.089 223.222C152.813 223.109 153.019 220.192 152.991 217.929C152.918 212.112 152.934 206.291 153.071 200.475C153.2 194.995 151.047 192.352 146.142 192.32C141.256 192.288 139.418 194.416 139.216 199.799C138.944 207.073 140.09 214.396 138.219 221.97Z" fill="#173963" fill-rule="nonzero" opacity="1" stroke="none" vectornator:layerName="path"/>
<path d="M82.6887 193.293C79.054 191.556 76.1914 193.226 73.302 194.406C71.4434 195.165 69.6428 195.596 68.5541 193.478C67.4045 191.242 69.1208 189.971 70.7585 189.19C75.9691 186.707 81.4257 186.354 86.64 188.898C91.4974 191.268 92.164 196.024 92.2034 200.836C92.2457 205.99 92.1648 211.144 92.1962 216.298C92.2164 219.611 90.6477 221.472 87.4611 222.376C83.7004 223.443 79.8924 223.539 76.0876 223.238C70.0743 222.762 66.2048 218.673 65.9504 212.878C65.7195 207.617 69.4252 203.084 75.0315 202.019C76.8073 201.682 78.6832 201.91 80.4918 201.697C82.4957 201.462 85.3203 202.75 86.185 200.026C87.0709 197.235 85.7388 194.845 82.6887 193.293M81.382 207.204C79.884 207.25 78.3679 207.165 76.892 207.369C73.9126 207.782 71.9503 209.277 72.0076 212.593C72.0639 215.846 73.8961 217.458 76.9666 217.735C78.6154 217.885 80.2896 217.78 81.9517 217.752C84.8881 217.703 86.149 216.076 86.0249 213.264C85.9053 210.555 86.7794 207.183 81.382 207.204Z" fill="#173963" fill-rule="nonzero" opacity="1" stroke="none" vectornator:layerName="path"/>
<path d="M54.5937 187.013C56.9873 186.655 58.9627 186.684 60.9027 187.289C62.445 187.77 63.7451 188.587 63.4838 190.405C63.2261 192.199 61.8416 192.602 60.1673 192.674C53.1498 192.978 52.9844 193.159 52.9464 199.951C52.9139 205.757 53.0342 211.565 52.8913 217.367C52.833 219.738 53.1294 223.033 49.5647 222.938C46.3326 222.852 46.7338 219.805 46.7148 217.541C46.6606 211.072 46.7074 204.603 46.6931 198.133C46.6811 192.739 48.893 188.879 54.5937 187.013Z" fill="#173963" fill-rule="nonzero" opacity="1" stroke="none" vectornator:layerName="path"/>
</g>
<g opacity="1" vectornator:layerName="Graphics">
<path d="M173.604 105.485C165.123 115.283 152.275 115.914 143.512 107.245C135.578 99.3958 135.797 86.0565 143.98 78.6819C152.623 70.8942 166.665 72.0304 173.729 81.0889C179.25 88.1693 179.282 96.0364 173.604 105.485Z" fill="#ef4f25" fill-rule="nonzero" opacity="1" stroke="none" vectornator:layerName="path"/>
<path d="M127.999 13.1929C132.61 20.7836 132.622 28.0839 127.755 35.0469C123.351 41.347 117.072 43.8817 109.476 42.4751C101.243 40.9506 96.3341 35.7444 94.2756 27.7857C92.38 20.457 96.5668 11.6321 103.528 7.97975C112.067 3.49926 121.229 5.35032 127.999 13.1929Z" fill="#ef4f25" fill-rule="nonzero" opacity="1" stroke="none" vectornator:layerName="path"/>
<path d="M89.3929 155.8C78.8782 159.009 69.7571 154.803 66.3189 145.489C63.1608 136.934 67.026 127.242 75.0407 123.619C84.1714 119.491 94.0815 122.631 98.6479 131.098C103.633 140.341 100 150.365 89.3929 155.8Z" fill="#ef4f25" fill-rule="nonzero" opacity="1" stroke="none" vectornator:layerName="path"/>
<path d="M110.862 107.791C116.491 103.783 122.508 103.607 126.817 107.063C130.929 110.363 132.457 116.149 130.513 121.066C128.71 125.626 123.631 128.73 118.491 128.249C114.021 127.83 110.579 125.645 108.677 121.531C106.443 116.699 107.054 112.14 110.862 107.791Z" fill="#ef4f25" fill-rule="nonzero" opacity="1" stroke="none" vectornator:layerName="path"/>
<path d="M143.084 61.8013C138.258 67.1832 132.698 67.5073 129.383 62.7879C127.058 59.4787 126.694 55.7434 129.42 52.6203C132.194 49.4421 136.005 48.6205 139.836 50.7687C144.138 53.1804 145.089 56.9335 143.084 61.8013Z" fill="#ef4f25" fill-rule="nonzero" opacity="1" stroke="none" vectornator:layerName="path"/>
</g>
</g>
</svg>
